<svg width="295" height="295" viewBox="0 0 295 295" fill="none" xmlns="http://www.w3.org/2000/svg">
<path d="M121.506 144.691L131.059 149.861C133.558 151.213 136.57 151.213 139.069 149.861L150.5 143.674L161.569 136.859C163.988 135.369 165.494 132.759 165.573 129.917L165.936 116.915L165.573 103.913C165.494 101.071 163.988 98.4607 161.569 96.9711L150.5 90.1554L139.069 83.9691C136.57 82.6171 133.558 82.6171 131.059 83.9691L119.628 90.1554L108.559 96.9711C106.139 98.4607 104.634 101.071 104.555 103.913L104.191 116.915L104.555 129.917C104.634 132.759 106.139 135.369 108.559 136.859L111.352 138.579L109.025 146.098C108.741 147.016 109.579 147.887 110.506 147.639L121.506 144.691Z" fill="white"/>
<path d="M168.036 71.775L155.951 65.2412C152.791 63.5323 148.981 63.5323 145.82 65.2412L131.359 73.0601L117.357 81.6744C114.296 83.5573 112.392 86.8565 112.291 90.4485L111.832 106.882L112.291 123.315C112.392 126.907 114.296 130.206 117.357 132.089L131.359 140.703L145.82 148.522C148.981 150.231 152.791 150.231 155.951 148.522L170.413 140.703L184.414 132.089C187.475 130.206 189.38 126.907 189.48 123.315L189.939 106.882L189.48 90.4485C189.38 86.8565 187.475 83.5573 184.414 81.6744L180.881 79.5005L183.825 69.9972C184.184 68.8368 183.125 67.7353 181.951 68.0494L168.036 71.775Z" fill="url(#paint0_linear_1653_661)"/>
<path d="M126.243 89.2462C131.78 83.229 138.326 83.8407 145.929 84.5512C147.288 84.6782 148.68 84.8083 150.107 84.9043C151.403 84.817 152.713 84.7015 154.025 84.5859C162.23 83.8623 170.52 83.1313 176.147 89.2462C179.989 93.7921 179.607 102.367 179.192 111.658L179.18 111.916C178.945 118.496 174.082 122.703 167.76 124.106C162.276 125.166 156.718 125.114 151.196 124.951C145.672 125.114 140.114 125.166 134.63 124.106C134.381 124.05 134.132 123.99 133.885 123.925C132.148 128.188 134.728 133.921 134.828 134.144L134.83 134.148C116.862 124.556 122.432 93.762 126.243 89.2462Z" fill="white"/>
<path d="M154.365 99.5489C154.365 96.3519 156.957 93.7603 160.154 93.7603H160.535C163.732 93.7603 166.323 96.3519 166.323 99.5489V104.2C166.323 107.397 163.732 109.989 160.535 109.989H160.154C156.957 109.989 154.365 107.397 154.365 104.2V99.5489Z" fill="#01013A"/>
<rect x="159.916" y="94.188" width="5.97898" height="5.97898" rx="2.98949" fill="white"/>
<path d="M134.293 99.5489C134.293 96.3519 136.885 93.7603 140.082 93.7603H140.462C143.659 93.7603 146.251 96.3519 146.251 99.5489V104.2C146.251 107.397 143.659 109.989 140.462 109.989H140.082C136.885 109.989 134.293 107.397 134.293 104.2V99.5489Z" fill="#01013A"/>
<rect x="139.844" y="94.188" width="5.97898" height="5.97898" rx="2.98949" fill="white"/>
<path d="M40.9708 202.763C40.9708 199.429 41.7226 196.438 43.2262 193.791C44.7298 191.11 46.7727 189.018 49.3549 187.515C51.9698 186.011 54.8626 185.259 58.0332 185.259C61.7595 185.259 65.0118 186.158 67.7901 187.956C70.5685 189.754 72.595 192.303 73.8698 195.605H68.5256C67.5777 193.546 66.2048 191.96 64.4071 190.849C62.642 189.738 60.5174 189.182 58.0332 189.182C55.6471 189.182 53.5061 189.738 51.6103 190.849C49.7145 191.96 48.2272 193.546 47.1486 195.605C46.0699 197.631 45.5306 200.017 45.5306 202.763C45.5306 205.476 46.0699 207.862 47.1486 209.921C48.2272 211.948 49.7145 213.517 51.6103 214.628C53.5061 215.74 55.6471 216.295 58.0332 216.295C60.5174 216.295 62.642 215.756 64.4071 214.677C66.2048 213.566 67.5777 211.981 68.5256 209.921H73.8698C72.595 213.19 70.5685 215.723 67.7901 217.521C65.0118 219.286 61.7595 220.169 58.0332 220.169C54.8626 220.169 51.9698 219.433 49.3549 217.962C46.7727 216.459 44.7298 214.383 43.2262 211.736C41.7226 209.088 40.9708 206.097 40.9708 202.763ZM92.2407 192.516C94.2672 192.516 96.0977 192.957 97.732 193.84C99.3663 194.69 100.641 195.981 101.556 197.713C102.504 199.445 102.978 201.554 102.978 204.038V219.875H98.5655V204.675C98.5655 201.995 97.8954 199.952 96.5553 198.547C95.2151 197.108 93.3847 196.389 91.064 196.389C88.7105 196.389 86.831 197.125 85.4255 198.596C84.0527 200.066 83.3663 202.207 83.3663 205.018V219.875H78.9046V183.592H83.3663V196.831C84.2488 195.458 85.4582 194.395 86.9945 193.644C88.5634 192.892 90.3122 192.516 92.2407 192.516ZM106.993 206.342C106.993 203.597 107.548 201.194 108.66 199.135C109.771 197.043 111.291 195.425 113.219 194.281C115.18 193.137 117.354 192.565 119.74 192.565C122.094 192.565 124.137 193.072 125.869 194.085C127.601 195.098 128.892 196.373 129.742 197.909V193.006H134.253V219.875H129.742V214.873C128.86 216.442 127.536 217.75 125.771 218.796C124.039 219.809 122.012 220.316 119.691 220.316C117.305 220.316 115.148 219.727 113.219 218.551C111.291 217.374 109.771 215.723 108.66 213.599C107.548 211.474 106.993 209.055 106.993 206.342ZM129.742 206.391C129.742 204.365 129.334 202.6 128.517 201.096C127.699 199.593 126.588 198.448 125.183 197.664C123.81 196.847 122.29 196.438 120.623 196.438C118.956 196.438 117.436 196.831 116.063 197.615C114.69 198.399 113.595 199.543 112.778 201.047C111.961 202.551 111.552 204.316 111.552 206.342C111.552 208.402 111.961 210.199 112.778 211.736C113.595 213.239 114.69 214.4 116.063 215.217C117.436 216.001 118.956 216.393 120.623 216.393C122.29 216.393 123.81 216.001 125.183 215.217C126.588 214.4 127.699 213.239 128.517 211.736C129.334 210.199 129.742 208.418 129.742 206.391ZM145.628 196.683V212.52C145.628 213.828 145.906 214.759 146.462 215.315C147.018 215.838 147.982 216.099 149.355 216.099H152.64V219.875H148.619C146.135 219.875 144.272 219.302 143.03 218.158C141.788 217.014 141.167 215.135 141.167 212.52V196.683H137.686V193.006H141.167V186.24H145.628V193.006H152.64V196.683H145.628Z" fill="white"/>
<path d="M177.287 220.218C174.116 220.218 171.224 219.482 168.609 218.011C165.994 216.508 163.918 214.432 162.382 211.785C160.878 209.104 160.127 206.097 160.127 202.763C160.127 199.429 160.878 196.438 162.382 193.791C163.918 191.11 165.994 189.035 168.609 187.564C171.224 186.06 174.116 185.309 177.287 185.309C180.49 185.309 183.399 186.06 186.014 187.564C188.629 189.035 190.688 191.094 192.192 193.742C193.696 196.389 194.447 199.396 194.447 202.763C194.447 206.13 193.696 209.137 192.192 211.785C190.688 214.432 188.629 216.508 186.014 218.011C183.399 219.482 180.49 220.218 177.287 220.218ZM177.287 216.344C179.673 216.344 181.814 215.789 183.71 214.677C185.638 213.566 187.142 211.981 188.221 209.921C189.332 207.862 189.888 205.476 189.888 202.763C189.888 200.017 189.332 197.631 188.221 195.605C187.142 193.546 185.655 191.96 183.759 190.849C181.863 189.738 179.706 189.182 177.287 189.182C174.868 189.182 172.711 189.738 170.815 190.849C168.919 191.96 167.416 193.546 166.304 195.605C165.226 197.631 164.686 200.017 164.686 202.763C164.686 205.476 165.226 207.862 166.304 209.921C167.416 211.981 168.919 213.566 170.815 214.677C172.744 215.789 174.901 216.344 177.287 216.344ZM211.822 192.516C215.09 192.516 217.738 193.513 219.764 195.507C221.791 197.468 222.804 200.312 222.804 204.038V219.875H218.392V204.675C218.392 201.995 217.722 199.952 216.381 198.547C215.041 197.108 213.211 196.389 210.89 196.389C208.537 196.389 206.657 197.125 205.252 198.596C203.879 200.066 203.192 202.207 203.192 205.018V219.875H198.731V193.006H203.192V196.831C204.075 195.458 205.268 194.395 206.772 193.644C208.308 192.892 209.991 192.516 211.822 192.516ZM253.001 205.411C253.001 206.261 252.951 207.159 252.853 208.107H231.378C231.542 210.755 232.441 212.831 234.075 214.334C235.742 215.805 237.752 216.54 240.106 216.54C242.034 216.54 243.636 216.099 244.911 215.217C246.218 214.301 247.133 213.092 247.656 211.588H252.461C251.742 214.171 250.304 216.279 248.147 217.913C245.989 219.515 243.309 220.316 240.106 220.316C237.556 220.316 235.268 219.744 233.241 218.6C231.248 217.456 229.679 215.838 228.535 213.746C227.391 211.621 226.819 209.17 226.819 206.391C226.819 203.613 227.374 201.178 228.486 199.086C229.597 196.994 231.15 195.392 233.143 194.281C235.17 193.137 237.491 192.565 240.106 192.565C242.655 192.565 244.911 193.121 246.872 194.232C248.833 195.343 250.337 196.88 251.383 198.841C252.461 200.769 253.001 202.959 253.001 205.411ZM248.392 204.479C248.392 202.779 248.016 201.325 247.264 200.116C246.512 198.873 245.483 197.942 244.175 197.321C242.9 196.667 241.479 196.34 239.91 196.34C237.654 196.34 235.726 197.059 234.124 198.498C232.555 199.936 231.656 201.93 231.427 204.479H248.392Z" fill="url(#paint1_linear_1653_661)"/>
<defs>
<linearGradient id="paint0_linear_1653_661" x1="184.467" y1="141.34" x2="110.108" y2="86.6035" gradientUnits="userSpaceOnUse">
<stop stop-color="#0C87FD"/>
<stop offset="1" stop-color="#9132FB"/>
</linearGradient>
<linearGradient id="paint1_linear_1653_661" x1="162.041" y1="190.733" x2="249.588" y2="220.701" gradientUnits="userSpaceOnUse">
<stop stop-color="#0E86FD"/>
<stop offset="1" stop-color="#8D34FB"/>
</linearGradient>
</defs>
</svg>
