<svg width="297" height="297" viewBox="0 0 297 297" fill="none" xmlns="http://www.w3.org/2000/svg">
<path d="M112.778 147.332C112.778 145.095 113.283 143.087 114.292 141.31C115.301 139.511 116.672 138.107 118.405 137.098C120.16 136.089 122.102 135.584 124.23 135.584C126.731 135.584 128.914 136.188 130.778 137.394C132.643 138.601 134.003 140.312 134.859 142.528H131.272C130.636 141.146 129.714 140.082 128.508 139.336C127.323 138.59 125.897 138.217 124.23 138.217C122.628 138.217 121.191 138.59 119.919 139.336C118.647 140.082 117.649 141.146 116.925 142.528C116.201 143.888 115.839 145.489 115.839 147.332C115.839 149.153 116.201 150.754 116.925 152.137C117.649 153.497 118.647 154.55 119.919 155.296C121.191 156.042 122.628 156.414 124.23 156.414C125.897 156.414 127.323 156.052 128.508 155.329C129.714 154.583 130.636 153.519 131.272 152.137H134.859C134.003 154.33 132.643 156.031 130.778 157.237C128.914 158.422 126.731 159.014 124.23 159.014C122.102 159.014 120.16 158.52 118.405 157.533C116.672 156.524 115.301 155.131 114.292 153.354C113.283 151.577 112.778 149.57 112.778 147.332ZM147.189 140.455C148.549 140.455 149.777 140.751 150.874 141.343C151.971 141.914 152.827 142.78 153.441 143.943C154.077 145.105 154.395 146.52 154.395 148.188V158.817H151.434V148.616C151.434 146.817 150.984 145.446 150.084 144.502C149.185 143.537 147.956 143.054 146.399 143.054C144.819 143.054 143.558 143.548 142.614 144.535C141.693 145.522 141.232 146.959 141.232 148.846V158.817H138.238V134.466H141.232V143.35C141.825 142.429 142.636 141.716 143.668 141.212C144.721 140.707 145.894 140.455 147.189 140.455ZM157.089 149.734C157.089 147.892 157.462 146.279 158.208 144.897C158.954 143.493 159.974 142.407 161.269 141.639C162.585 140.871 164.044 140.488 165.645 140.488C167.225 140.488 168.596 140.828 169.758 141.508C170.921 142.188 171.788 143.043 172.358 144.074V140.784H175.386V158.817H172.358V155.46C171.766 156.513 170.877 157.391 169.693 158.093C168.53 158.773 167.17 159.113 165.612 159.113C164.011 159.113 162.563 158.718 161.269 157.928C159.974 157.138 158.954 156.031 158.208 154.605C157.462 153.179 157.089 151.555 157.089 149.734ZM172.358 149.767C172.358 148.407 172.084 147.222 171.535 146.213C170.987 145.204 170.241 144.436 169.298 143.91C168.376 143.361 167.356 143.087 166.237 143.087C165.119 143.087 164.099 143.35 163.177 143.877C162.256 144.403 161.521 145.171 160.972 146.18C160.424 147.19 160.15 148.374 160.15 149.734C160.15 151.116 160.424 152.323 160.972 153.354C161.521 154.363 162.256 155.142 163.177 155.691C164.099 156.217 165.119 156.48 166.237 156.48C167.356 156.48 168.376 156.217 169.298 155.691C170.241 155.142 170.987 154.363 171.535 153.354C172.084 152.323 172.358 151.127 172.358 149.767ZM183.02 143.252V153.881C183.02 154.758 183.207 155.383 183.58 155.756C183.953 156.107 184.6 156.283 185.521 156.283H187.726V158.817H185.028C183.36 158.817 182.11 158.433 181.276 157.665C180.442 156.897 180.026 155.636 180.026 153.881V143.252H177.689V140.784H180.026V136.243H183.02V140.784H187.726V143.252H183.02Z" fill="#01013A"/>
<path d="M204.611 159.047C202.483 159.047 200.541 158.553 198.786 157.566C197.031 156.557 195.638 155.164 194.607 153.387C193.598 151.588 193.093 149.57 193.093 147.332C193.093 145.095 193.598 143.087 194.607 141.31C195.638 139.511 197.031 138.118 198.786 137.131C200.541 136.122 202.483 135.617 204.611 135.617C206.76 135.617 208.713 136.122 210.468 137.131C212.223 138.118 213.605 139.5 214.614 141.277C215.623 143.054 216.128 145.073 216.128 147.332C216.128 149.592 215.623 151.61 214.614 153.387C213.605 155.164 212.223 156.557 210.468 157.566C208.713 158.553 206.76 159.047 204.611 159.047ZM204.611 156.447C206.212 156.447 207.649 156.074 208.921 155.329C210.216 154.583 211.225 153.519 211.949 152.137C212.695 150.754 213.068 149.153 213.068 147.332C213.068 145.489 212.695 143.888 211.949 142.528C211.225 141.146 210.227 140.082 208.954 139.336C207.682 138.59 206.234 138.217 204.611 138.217C202.987 138.217 201.539 138.59 200.267 139.336C198.994 140.082 197.985 141.146 197.239 142.528C196.515 143.888 196.154 145.489 196.154 147.332C196.154 149.153 196.515 150.754 197.239 152.137C197.985 153.519 198.994 154.583 200.267 155.329C201.561 156.074 203.009 156.447 204.611 156.447ZM227.789 140.455C229.983 140.455 231.76 141.124 233.12 142.462C234.48 143.778 235.16 145.687 235.16 148.188V158.817H232.198V148.616C232.198 146.817 231.749 145.446 230.849 144.502C229.95 143.537 228.721 143.054 227.164 143.054C225.584 143.054 224.323 143.548 223.379 144.535C222.458 145.522 221.997 146.959 221.997 148.846V158.817H219.003V140.784H221.997V143.35C222.59 142.429 223.39 141.716 224.399 141.212C225.43 140.707 226.56 140.455 227.789 140.455ZM255.426 149.109C255.426 149.68 255.393 150.283 255.328 150.919H240.914C241.024 152.696 241.627 154.089 242.724 155.098C243.843 156.085 245.192 156.579 246.772 156.579C248.066 156.579 249.141 156.283 249.997 155.691C250.874 155.076 251.489 154.265 251.84 153.255H255.064C254.582 154.988 253.617 156.403 252.169 157.5C250.721 158.575 248.922 159.113 246.772 159.113C245.061 159.113 243.525 158.729 242.165 157.961C240.827 157.193 239.774 156.107 239.006 154.703C238.238 153.277 237.854 151.632 237.854 149.767C237.854 147.903 238.227 146.268 238.973 144.864C239.719 143.46 240.761 142.385 242.099 141.639C243.459 140.871 245.017 140.488 246.772 140.488C248.483 140.488 249.997 140.861 251.313 141.606C252.629 142.352 253.638 143.383 254.34 144.7C255.064 145.994 255.426 147.464 255.426 149.109ZM252.333 148.484C252.333 147.343 252.081 146.367 251.576 145.555C251.072 144.722 250.381 144.096 249.503 143.68C248.648 143.241 247.693 143.021 246.64 143.021C245.127 143.021 243.832 143.504 242.757 144.469C241.704 145.435 241.101 146.773 240.947 148.484H252.333Z" fill="url(#paint0_linear_1653_653)"/>
<path d="M52.7388 179.042L60.3186 183.144C62.3012 184.217 64.6908 184.217 66.6735 183.144L75.744 178.236L84.5266 172.828C86.4462 171.646 87.6409 169.574 87.704 167.319L87.9922 157.003L87.704 146.687C87.6409 144.432 86.4462 142.36 84.5266 141.178L75.744 135.771L66.6735 130.862C64.6908 129.789 62.3012 129.789 60.3186 130.862L51.2479 135.771L42.4656 141.178C40.5457 142.36 39.351 144.432 39.2882 146.687L39 157.003L39.2882 167.319C39.351 169.574 40.5457 171.646 42.4656 172.828L44.6819 174.192L42.8353 180.158C42.6098 180.887 43.2745 181.578 44.0106 181.381L52.7388 179.042Z" fill="#01013A"/>
<path d="M89.6204 120.944L80.0319 115.76C77.524 114.404 74.5011 114.404 71.9929 115.76L60.5187 121.964L49.4088 128.799C46.9804 130.293 45.4691 132.911 45.3893 135.761L45.0248 148.8L45.3893 161.839C45.4691 164.689 46.9804 167.307 49.4088 168.801L60.5187 175.636L71.9929 181.84C74.5011 183.196 77.524 183.196 80.0319 181.84L91.5063 175.636L102.616 168.801C105.045 167.307 106.556 164.689 106.635 161.839L107 148.8L106.635 135.761C106.556 132.911 105.045 130.293 102.616 128.799L99.8123 127.074L102.148 119.534C102.434 118.613 101.593 117.739 100.662 117.988L89.6204 120.944Z" fill="url(#paint1_linear_1653_653)"/>
<path d="M56.4964 135.049C60.89 130.275 66.0841 130.76 72.1167 131.324C73.1948 131.425 74.2997 131.528 75.4316 131.604C76.4602 131.535 77.4994 131.443 78.5403 131.352C85.0507 130.777 91.6284 130.197 96.0934 135.049C99.1423 138.656 98.8384 145.46 98.5092 152.832L98.5001 153.037C98.3136 158.258 94.4552 161.596 89.439 162.709C85.0876 163.55 80.6771 163.509 76.296 163.38C71.9131 163.509 67.5026 163.55 63.1512 162.709C62.9536 162.665 62.756 162.617 62.5602 162.565C61.1824 165.948 63.2289 170.497 63.3086 170.674L63.3101 170.677C49.0533 163.066 53.4731 138.632 56.4964 135.049Z" fill="white"/>
<path d="M78.8099 143.224C78.8099 140.687 80.8663 138.631 83.4029 138.631H83.705C86.2417 138.631 88.2981 140.687 88.2981 143.224V146.915C88.2981 149.452 86.2417 151.508 83.705 151.508H83.4029C80.8663 151.508 78.8099 149.452 78.8099 146.915V143.224Z" fill="#01013A"/>
<path d="M62.8828 143.224C62.8828 140.687 64.9392 138.631 67.4758 138.631H67.778C70.3146 138.631 72.371 140.687 72.371 143.224V146.915C72.371 149.452 70.3146 151.508 67.7779 151.508H67.4758C64.9392 151.508 62.8828 149.452 62.8828 146.915V143.224Z" fill="#01013A"/>
<path d="M83.2148 141.342C83.2148 140.032 84.2768 138.97 85.5868 138.97C86.8969 138.97 87.9589 140.032 87.9589 141.342C87.9589 142.652 86.8969 143.714 85.5868 143.714C84.2768 143.714 83.2148 142.652 83.2148 141.342Z" fill="white"/>
<path d="M67.2891 141.342C67.2891 140.032 68.3511 138.97 69.6611 138.97C70.9711 138.97 72.0331 140.032 72.0331 141.342C72.0331 142.652 70.9711 143.714 69.6611 143.714C68.3511 143.714 67.2891 142.652 67.2891 141.342Z" fill="white"/>
<defs>
<linearGradient id="paint0_linear_1653_653" x1="194.275" y1="138.813" x2="253.222" y2="159.012" gradientUnits="userSpaceOnUse">
<stop stop-color="#0E86FD"/>
<stop offset="1" stop-color="#8D34FB"/>
</linearGradient>
<linearGradient id="paint1_linear_1653_653" x1="102.658" y1="176.142" x2="43.6573" y2="132.71" gradientUnits="userSpaceOnUse">
<stop stop-color="#0C87FD"/>
<stop offset="1" stop-color="#9132FB"/>
</linearGradient>
</defs>
</svg>
