<svg width="297" height="297" viewBox="0 0 297 297" fill="none" xmlns="http://www.w3.org/2000/svg">
<path d="M100.918 216.816L118.528 226.345C123.134 228.837 128.685 228.837 133.292 226.345L154.364 214.941L174.768 202.378C179.228 199.632 182.003 194.82 182.15 189.581L182.819 165.614L182.15 141.647C182.003 136.408 179.228 131.596 174.768 128.85L154.364 116.286L133.292 104.882C128.685 102.39 123.134 102.39 118.528 104.882L97.4545 116.286L77.0513 128.85C72.591 131.596 69.8155 136.408 69.6694 141.647L69 165.614L69.6694 189.581C69.8155 194.82 72.591 199.632 77.0513 202.378L82.2003 205.548L77.9102 219.409C77.3863 221.101 78.9306 222.708 80.6407 222.249L100.918 216.816Z" fill="#01013A"/>
<path d="M186.602 81.8417L164.326 69.7973C158.499 66.6472 151.477 66.6472 145.65 69.7973L118.993 84.2106L93.1818 100.09C87.5402 103.561 84.0292 109.642 83.8437 116.264L82.9968 146.556L83.8437 176.849C84.0292 183.47 87.5402 189.552 93.1818 193.023L118.993 208.902L145.65 223.315C151.477 226.465 158.499 226.465 164.326 223.315L190.983 208.902L216.794 193.023C222.436 189.552 225.947 183.47 226.132 176.849L226.979 146.556L226.132 116.264C225.947 109.642 222.436 103.561 216.794 100.09L210.28 96.0826L215.707 78.5644C216.37 76.4255 214.416 74.3949 212.253 74.9739L186.602 81.8417Z" fill="url(#paint0_linear_1653_647)"/>
<path d="M109.648 114.61C119.855 103.518 131.922 104.645 145.937 105.955C148.442 106.189 151.009 106.429 153.638 106.606C156.028 106.445 158.442 106.232 160.861 106.019C175.986 104.685 191.267 103.338 201.64 114.61C208.723 122.99 208.018 138.796 207.253 155.922L207.232 156.399C206.798 168.529 197.834 176.283 186.181 178.87C176.071 180.823 165.825 180.728 155.647 180.428C145.464 180.728 135.218 180.823 125.109 178.87C124.649 178.767 124.19 178.656 123.735 178.535C120.535 186.393 125.289 196.962 125.474 197.373L125.478 197.381C92.356 179.698 102.624 122.934 109.648 114.61Z" fill="white"/>
<path d="M161.486 133.602C161.486 127.709 166.264 122.931 172.157 122.931H172.859C178.752 122.931 183.529 127.709 183.529 133.602V142.176C183.529 148.069 178.752 152.847 172.859 152.847H172.157C166.264 152.847 161.486 148.069 161.486 142.176V133.602Z" fill="#01013A"/>
<path d="M124.484 133.602C124.484 127.709 129.262 122.931 135.155 122.931H135.857C141.75 122.931 146.527 127.709 146.527 133.602V142.176C146.527 148.069 141.75 152.847 135.857 152.847H135.155C129.262 152.847 124.484 148.069 124.484 142.176V133.602Z" fill="#01013A"/>
<path d="M171.72 129.23C171.72 126.186 174.187 123.719 177.23 123.719C180.274 123.719 182.741 126.186 182.741 129.23C182.741 132.273 180.274 134.74 177.23 134.74C174.187 134.74 171.72 132.273 171.72 129.23Z" fill="white"/>
<path d="M134.721 129.23C134.721 126.186 137.188 123.719 140.231 123.719C143.275 123.719 145.742 126.186 145.742 129.23C145.742 132.273 143.275 134.74 140.231 134.74C137.188 134.74 134.721 132.273 134.721 129.23Z" fill="white"/>
<defs>
<linearGradient id="paint0_linear_1653_647" x1="216.891" y1="210.077" x2="79.8199" y2="109.176" gradientUnits="userSpaceOnUse">
<stop stop-color="#0C87FD"/>
<stop offset="1" stop-color="#9132FB"/>
</linearGradient>
</defs>
</svg>
