<svg width="297" height="297" viewBox="0 0 297 297" fill="none" xmlns="http://www.w3.org/2000/svg">
<path d="M122.94 145.979L132.493 151.148C134.992 152.5 138.003 152.5 140.502 151.148L151.934 144.962L163.002 138.146C165.422 136.657 166.927 134.046 167.007 131.204L167.37 118.202L167.007 105.201C166.927 102.359 165.422 99.7483 163.002 98.2587L151.934 91.443L140.502 85.2567C138.003 83.9047 134.992 83.9047 132.493 85.2567L121.061 91.443L109.993 98.2587C107.573 99.7483 106.067 102.359 105.988 105.201L105.625 118.202L105.988 131.204C106.067 134.046 107.573 136.657 109.993 138.146L112.786 139.866L110.459 147.385C110.174 148.303 111.012 149.175 111.94 148.926L122.94 145.979Z" fill="#01013A"/>
<path d="M169.469 73.0626L157.385 66.5288C154.224 64.8199 150.415 64.8199 147.253 66.5288L132.792 74.3477L118.791 82.962C115.73 84.8448 113.825 88.1441 113.725 91.7361L113.265 108.169L113.725 124.602C113.825 128.194 115.73 131.494 118.791 133.376L132.792 141.991L147.253 149.81C150.415 151.519 154.224 151.519 157.385 149.81L171.846 141.991L185.848 133.376C188.909 131.494 190.813 128.194 190.914 124.602L191.373 108.169L190.914 91.7361C190.813 88.1441 188.909 84.8448 185.848 82.962L182.314 80.7881L185.258 71.2848C185.618 70.1244 184.558 69.0229 183.385 69.337L169.469 73.0626Z" fill="url(#paint0_linear_1653_639)"/>
<path d="M127.676 90.5338C133.214 84.5166 139.76 85.1283 147.363 85.8388C148.721 85.9658 150.114 86.0959 151.54 86.1919C152.837 86.1046 154.146 85.9891 155.458 85.8734C163.663 85.1499 171.953 84.4189 177.581 90.5338C181.423 95.0797 181.04 103.654 180.625 112.945L180.614 113.204C180.379 119.784 175.516 123.99 169.194 125.394C163.71 126.453 158.151 126.402 152.63 126.239C147.106 126.402 141.547 126.453 136.063 125.394C135.814 125.338 135.565 125.278 135.318 125.212C133.582 129.475 136.161 135.208 136.262 135.432L136.264 135.436C118.296 125.843 123.866 95.0496 127.676 90.5338Z" fill="white"/>
<path d="M155.801 100.836C155.801 97.6395 158.392 95.0479 161.589 95.0479H161.97C165.167 95.0479 167.759 97.6395 167.759 100.836V105.488C167.759 108.685 165.167 111.277 161.97 111.277H161.589C158.392 111.277 155.801 108.685 155.801 105.488V100.836Z" fill="#01013A"/>
<rect x="161.35" y="95.4756" width="5.97898" height="5.97898" rx="2.98949" fill="white"/>
<path d="M135.727 100.836C135.727 97.6395 138.318 95.0479 141.515 95.0479H141.896C145.093 95.0479 147.685 97.6395 147.685 100.836V105.488C147.685 108.685 145.093 111.277 141.896 111.277H141.515C138.318 111.277 135.727 108.685 135.727 105.488V100.836Z" fill="#01013A"/>
<rect x="141.277" y="95.4756" width="5.97898" height="5.97898" rx="2.98949" fill="white"/>
<path d="M42.4044 204.051C42.4044 200.717 43.1562 197.726 44.6598 195.078C46.1634 192.398 48.2063 190.306 50.7885 188.802C53.4034 187.299 56.2962 186.547 59.4668 186.547C63.193 186.547 66.4454 187.446 69.2237 189.244C72.0021 191.041 74.0286 193.591 75.3034 196.892H69.9592C69.0112 194.833 67.6384 193.248 65.8407 192.136C64.0756 191.025 61.951 190.469 59.4668 190.469C57.0807 190.469 54.9397 191.025 53.0439 192.136C51.1481 193.248 49.6608 194.833 48.5822 196.892C47.5035 198.919 46.9642 201.305 46.9642 204.051C46.9642 206.764 47.5035 209.15 48.5822 211.209C49.6608 213.236 51.1481 214.805 53.0439 215.916C54.9397 217.027 57.0807 217.583 59.4668 217.583C61.951 217.583 64.0756 217.044 65.8407 215.965C67.6384 214.854 69.0112 213.268 69.9592 211.209H75.3034C74.0286 214.478 72.0021 217.011 69.2237 218.809C66.4454 220.574 63.193 221.456 59.4668 221.456C56.2962 221.456 53.4034 220.721 50.7885 219.25C48.2063 217.746 46.1634 215.671 44.6598 213.023C43.1562 210.376 42.4044 207.385 42.4044 204.051ZM93.6743 193.803C95.7008 193.803 97.5313 194.245 99.1656 195.127C100.8 195.977 102.075 197.268 102.99 199.001C103.938 200.733 104.412 202.841 104.412 205.325V221.162H99.9991V205.963C99.9991 203.283 99.329 201.24 97.9889 199.834C96.6487 198.396 94.8183 197.677 92.4975 197.677C90.1441 197.677 88.2646 198.412 86.8591 199.883C85.4863 201.354 84.7999 203.495 84.7999 206.306V221.162H80.3382V184.88H84.7999V198.118C85.6824 196.745 86.8918 195.683 88.4281 194.931C89.997 194.179 91.7458 193.803 93.6743 193.803ZM108.426 207.63C108.426 204.884 108.982 202.482 110.093 200.423C111.204 198.331 112.724 196.713 114.653 195.569C116.614 194.425 118.788 193.853 121.174 193.853C123.527 193.853 125.57 194.359 127.303 195.372C129.035 196.386 130.326 197.66 131.176 199.197V194.294H135.687V221.162H131.176V216.161C130.293 217.73 128.97 219.037 127.205 220.083C125.472 221.097 123.446 221.603 121.125 221.603C118.739 221.603 116.581 221.015 114.653 219.838C112.724 218.662 111.204 217.011 110.093 214.886C108.982 212.762 108.426 210.343 108.426 207.63ZM131.176 207.679C131.176 205.652 130.767 203.887 129.95 202.384C129.133 200.88 128.022 199.736 126.616 198.952C125.243 198.134 123.723 197.726 122.056 197.726C120.389 197.726 118.869 198.118 117.497 198.903C116.124 199.687 115.029 200.831 114.212 202.335C113.394 203.838 112.986 205.603 112.986 207.63C112.986 209.689 113.394 211.487 114.212 213.023C115.029 214.527 116.124 215.687 117.497 216.504C118.869 217.289 120.389 217.681 122.056 217.681C123.723 217.681 125.243 217.289 126.616 216.504C128.022 215.687 129.133 214.527 129.95 213.023C130.767 211.487 131.176 209.705 131.176 207.679ZM147.062 197.971V213.808C147.062 215.115 147.34 216.047 147.895 216.602C148.451 217.125 149.415 217.387 150.788 217.387H154.073V221.162H150.053C147.569 221.162 145.705 220.59 144.463 219.446C143.221 218.302 142.6 216.423 142.6 213.808V197.971H139.119V194.294H142.6V187.528H147.062V194.294H154.073V197.971H147.062Z" fill="#01013A"/>
<path d="M178.721 221.505C175.55 221.505 172.657 220.77 170.042 219.299C167.427 217.795 165.352 215.72 163.816 213.072C162.312 210.392 161.56 207.385 161.56 204.051C161.56 200.717 162.312 197.726 163.816 195.078C165.352 192.398 167.427 190.322 170.042 188.851C172.657 187.348 175.55 186.596 178.721 186.596C181.924 186.596 184.833 187.348 187.448 188.851C190.063 190.322 192.122 192.382 193.626 195.029C195.129 197.677 195.881 200.684 195.881 204.051C195.881 207.417 195.129 210.425 193.626 213.072C192.122 215.72 190.063 217.795 187.448 219.299C184.833 220.77 181.924 221.505 178.721 221.505ZM178.721 217.632C181.107 217.632 183.248 217.076 185.143 215.965C187.072 214.854 188.576 213.268 189.654 211.209C190.766 209.15 191.321 206.764 191.321 204.051C191.321 201.305 190.766 198.919 189.654 196.892C188.576 194.833 187.088 193.248 185.193 192.136C183.297 191.025 181.139 190.469 178.721 190.469C176.302 190.469 174.144 191.025 172.249 192.136C170.353 193.248 168.849 194.833 167.738 196.892C166.659 198.919 166.12 201.305 166.12 204.051C166.12 206.764 166.659 209.15 167.738 211.209C168.849 213.268 170.353 214.854 172.249 215.965C174.177 217.076 176.334 217.632 178.721 217.632ZM213.255 193.803C216.524 193.803 219.171 194.8 221.198 196.794C223.225 198.755 224.238 201.599 224.238 205.325V221.162H219.825V205.963C219.825 203.283 219.155 201.24 217.815 199.834C216.475 198.396 214.644 197.677 212.324 197.677C209.97 197.677 208.091 198.412 206.685 199.883C205.312 201.354 204.626 203.495 204.626 206.306V221.162H200.164V194.294H204.626V198.118C205.508 196.745 206.702 195.683 208.205 194.931C209.741 194.179 211.425 193.803 213.255 193.803ZM254.434 206.698C254.434 207.548 254.385 208.447 254.287 209.395H232.812C232.975 212.043 233.874 214.118 235.509 215.622C237.176 217.093 239.186 217.828 241.539 217.828C243.468 217.828 245.069 217.387 246.344 216.504C247.652 215.589 248.567 214.38 249.09 212.876H253.895C253.176 215.458 251.737 217.567 249.58 219.201C247.423 220.803 244.743 221.603 241.539 221.603C238.99 221.603 236.702 221.031 234.675 219.887C232.681 218.743 231.112 217.125 229.968 215.033C228.824 212.909 228.252 210.457 228.252 207.679C228.252 204.901 228.808 202.465 229.919 200.373C231.031 198.282 232.583 196.68 234.577 195.569C236.604 194.425 238.924 193.853 241.539 193.853C244.089 193.853 246.344 194.408 248.305 195.52C250.267 196.631 251.77 198.167 252.816 200.128C253.895 202.057 254.434 204.247 254.434 206.698ZM249.825 205.767C249.825 204.067 249.449 202.613 248.698 201.403C247.946 200.161 246.916 199.229 245.609 198.608C244.334 197.955 242.912 197.628 241.343 197.628C239.088 197.628 237.159 198.347 235.558 199.785C233.989 201.223 233.09 203.217 232.861 205.767H249.825Z" fill="url(#paint1_linear_1653_639)"/>
<defs>
<linearGradient id="paint0_linear_1653_639" x1="185.901" y1="142.628" x2="111.542" y2="87.8911" gradientUnits="userSpaceOnUse">
<stop stop-color="#0C87FD"/>
<stop offset="1" stop-color="#9132FB"/>
</linearGradient>
<linearGradient id="paint1_linear_1653_639" x1="163.475" y1="192.021" x2="251.021" y2="221.988" gradientUnits="userSpaceOnUse">
<stop stop-color="#0E86FD"/>
<stop offset="1" stop-color="#8D34FB"/>
</linearGradient>
</defs>
</svg>
