<svg width="295" height="295" viewBox="0 0 295 295" fill="none" xmlns="http://www.w3.org/2000/svg">
<path d="M111.446 145.75C111.446 143.474 111.959 141.432 112.986 139.624C114.012 137.794 115.407 136.366 117.17 135.339C118.955 134.313 120.93 133.799 123.095 133.799C125.639 133.799 127.86 134.413 129.757 135.641C131.654 136.868 133.038 138.609 133.908 140.863H130.259C129.612 139.457 128.674 138.374 127.447 137.616C126.242 136.857 124.791 136.478 123.095 136.478C121.466 136.478 120.004 136.857 118.71 137.616C117.415 138.374 116.4 139.457 115.664 140.863C114.927 142.247 114.559 143.876 114.559 145.75C114.559 147.603 114.927 149.232 115.664 150.638C116.4 152.021 117.415 153.093 118.71 153.851C120.004 154.61 121.466 154.99 123.095 154.99C124.791 154.99 126.242 154.621 127.447 153.885C128.674 153.126 129.612 152.044 130.259 150.638H133.908C133.038 152.869 131.654 154.599 129.757 155.827C127.86 157.032 125.639 157.634 123.095 157.634C120.93 157.634 118.955 157.132 117.17 156.128C115.407 155.101 114.012 153.684 112.986 151.876C111.959 150.069 111.446 148.027 111.446 145.75ZM146.451 138.754C147.835 138.754 149.084 139.055 150.2 139.658C151.316 140.238 152.186 141.119 152.811 142.302C153.458 143.485 153.782 144.925 153.782 146.621V157.433H150.769V147.056C150.769 145.226 150.312 143.831 149.397 142.871C148.482 141.889 147.232 141.398 145.647 141.398C144.041 141.398 142.757 141.901 141.798 142.905C140.86 143.909 140.392 145.371 140.392 147.29V157.433H137.345V132.661H140.392V141.7C140.994 140.762 141.82 140.037 142.869 139.524C143.94 139.011 145.134 138.754 146.451 138.754ZM156.523 148.194C156.523 146.319 156.902 144.679 157.661 143.273C158.42 141.845 159.458 140.74 160.774 139.959C162.113 139.178 163.597 138.787 165.227 138.787C166.833 138.787 168.228 139.133 169.411 139.825C170.594 140.517 171.475 141.387 172.056 142.436V139.089H175.135V157.433H172.056V154.019C171.453 155.09 170.549 155.983 169.344 156.697C168.161 157.389 166.778 157.735 165.193 157.735C163.564 157.735 162.091 157.333 160.774 156.53C159.458 155.726 158.42 154.599 157.661 153.148C156.902 151.698 156.523 150.046 156.523 148.194ZM172.056 148.228C172.056 146.844 171.777 145.639 171.219 144.612C170.661 143.586 169.902 142.804 168.942 142.269C168.005 141.711 166.967 141.432 165.829 141.432C164.691 141.432 163.653 141.7 162.716 142.235C161.779 142.771 161.031 143.552 160.473 144.579C159.915 145.605 159.636 146.81 159.636 148.194C159.636 149.6 159.915 150.827 160.473 151.876C161.031 152.903 161.779 153.695 162.716 154.253C163.653 154.789 164.691 155.057 165.829 155.057C166.967 155.057 168.005 154.789 168.942 154.253C169.902 153.695 170.661 152.903 171.219 151.876C171.777 150.827 172.056 149.611 172.056 148.228ZM182.902 141.599V152.412C182.902 153.305 183.092 153.941 183.471 154.32C183.851 154.677 184.509 154.856 185.446 154.856H187.689V157.433H184.944C183.248 157.433 181.976 157.043 181.128 156.262C180.28 155.481 179.856 154.197 179.856 152.412V141.599H177.479V139.089H179.856V134.469H182.902V139.089H187.689V141.599H182.902Z" fill="white"/>
<path d="M204.97 157.668C202.805 157.668 200.83 157.166 199.045 156.161C197.259 155.135 195.842 153.718 194.793 151.91C193.767 150.08 193.253 148.027 193.253 145.75C193.253 143.474 193.767 141.432 194.793 139.624C195.842 137.794 197.259 136.377 199.045 135.373C200.83 134.346 202.805 133.833 204.97 133.833C207.157 133.833 209.143 134.346 210.929 135.373C212.714 136.377 214.12 137.783 215.147 139.591C216.173 141.398 216.687 143.452 216.687 145.75C216.687 148.049 216.173 150.102 215.147 151.91C214.12 153.718 212.714 155.135 210.929 156.161C209.143 157.166 207.157 157.668 204.97 157.668ZM204.97 155.023C206.599 155.023 208.061 154.644 209.355 153.885C210.672 153.126 211.699 152.044 212.435 150.638C213.194 149.232 213.573 147.603 213.573 145.75C213.573 143.876 213.194 142.247 212.435 140.863C211.699 139.457 210.683 138.374 209.389 137.616C208.094 136.857 206.621 136.478 204.97 136.478C203.319 136.478 201.846 136.857 200.551 137.616C199.257 138.374 198.23 139.457 197.471 140.863C196.735 142.247 196.367 143.876 196.367 145.75C196.367 147.603 196.735 149.232 197.471 150.638C198.23 152.044 199.257 153.126 200.551 153.885C201.868 154.644 203.341 155.023 204.97 155.023ZM228.549 138.754C230.781 138.754 232.588 139.435 233.972 140.796C235.356 142.135 236.048 144.077 236.048 146.621V157.433H233.035V147.056C233.035 145.226 232.577 143.831 231.662 142.871C230.747 141.889 229.497 141.398 227.913 141.398C226.306 141.398 225.023 141.901 224.063 142.905C223.126 143.909 222.657 145.371 222.657 147.29V157.433H219.611V139.089H222.657V141.7C223.26 140.762 224.074 140.037 225.101 139.524C226.15 139.011 227.299 138.754 228.549 138.754ZM256.664 147.558C256.664 148.138 256.631 148.752 256.564 149.399H241.902C242.013 151.207 242.627 152.624 243.743 153.651C244.881 154.655 246.254 155.157 247.86 155.157C249.177 155.157 250.271 154.856 251.141 154.253C252.034 153.628 252.659 152.803 253.016 151.776H256.296C255.805 153.539 254.823 154.978 253.35 156.094C251.877 157.188 250.047 157.735 247.86 157.735C246.12 157.735 244.557 157.344 243.174 156.563C241.812 155.782 240.741 154.677 239.96 153.249C239.179 151.798 238.788 150.124 238.788 148.228C238.788 146.331 239.168 144.668 239.927 143.24C240.685 141.811 241.745 140.718 243.107 139.959C244.49 139.178 246.075 138.787 247.86 138.787C249.601 138.787 251.141 139.167 252.48 139.926C253.819 140.684 254.846 141.733 255.56 143.072C256.296 144.389 256.664 145.884 256.664 147.558ZM253.518 146.922C253.518 145.761 253.261 144.768 252.748 143.943C252.235 143.095 251.532 142.459 250.639 142.034C249.768 141.588 248.798 141.365 247.726 141.365C246.187 141.365 244.87 141.856 243.776 142.838C242.705 143.82 242.091 145.181 241.935 146.922H253.518Z" fill="url(#paint0_linear_1653_675)"/>
<path d="M50.3052 177.416L57.885 181.517C59.8676 182.59 62.2572 182.59 64.2399 181.517L73.3104 176.609L82.093 171.201C84.0126 170.019 85.2073 167.948 85.2704 165.693L85.5586 155.376L85.2704 145.06C85.2073 142.805 84.0126 140.734 82.093 139.552L73.3104 134.144L64.2399 129.235C62.2572 128.162 59.8676 128.162 57.885 129.235L48.8143 134.144L40.032 139.552C38.1121 140.734 36.9174 142.805 36.8546 145.06L36.5664 155.376L36.8546 165.693C36.9174 167.948 38.1121 170.019 40.032 171.201L42.2483 172.566L40.4017 178.532C40.1762 179.26 40.8409 179.952 41.577 179.755L50.3052 177.416Z" fill="white"/>
<path d="M87.1868 119.318L77.5983 114.133C75.0904 112.777 72.0675 112.777 69.5593 114.133L58.0851 120.337L46.9752 127.172C44.5468 128.666 43.0355 131.284 42.9557 134.134L42.5912 147.173L42.9557 160.212C43.0355 163.062 44.5468 165.68 46.9752 167.174L58.0851 174.009L69.5593 180.213C72.0675 181.569 75.0904 181.569 77.5983 180.213L89.0728 174.009L100.182 167.174C102.611 165.68 104.122 163.062 104.202 160.212L104.566 147.173L104.202 134.134C104.122 131.284 102.611 128.666 100.182 127.172L97.3788 125.448L99.7147 117.907C100 116.986 99.1591 116.112 98.228 116.362L87.1868 119.318Z" fill="url(#paint1_linear_1653_675)"/>
<path d="M54.0628 133.423C58.4564 128.648 63.6505 129.134 69.6831 129.697C70.7612 129.798 71.8661 129.901 72.998 129.977C74.0266 129.908 75.0658 129.817 76.1067 129.725C82.6171 129.151 89.1949 128.571 93.6598 133.423C96.7087 137.03 96.4048 143.833 96.0757 151.205L96.0665 151.41C95.88 156.631 92.0216 159.969 87.0054 161.083C82.654 161.923 78.2435 161.883 73.8624 161.753C69.4795 161.882 65.069 161.923 60.7176 161.083C60.52 161.038 60.3224 160.99 60.1266 160.939C58.7488 164.321 60.7953 168.87 60.875 169.047L60.8765 169.051C46.6197 161.439 51.0395 137.006 54.0628 133.423Z" fill="white"/>
<path d="M76.3763 141.597C76.3763 139.061 78.4327 137.004 80.9693 137.004H81.2714C83.8081 137.004 85.8645 139.061 85.8645 141.597V145.288C85.8645 147.825 83.8081 149.881 81.2714 149.881H80.9693C78.4327 149.881 76.3763 147.825 76.3763 145.288V141.597Z" fill="#01013A"/>
<path d="M60.4492 141.597C60.4492 139.061 62.5056 137.004 65.0422 137.004H65.3444C67.881 137.004 69.9374 139.061 69.9374 141.597V145.288C69.9374 147.825 67.881 149.881 65.3444 149.881H65.0422C62.5056 149.881 60.4492 147.825 60.4492 145.288V141.597Z" fill="#01013A"/>
<path d="M80.7812 139.715C80.7812 138.405 81.8432 137.343 83.1532 137.343C84.4633 137.343 85.5253 138.405 85.5253 139.715C85.5253 141.025 84.4633 142.087 83.1532 142.087C81.8432 142.087 80.7812 141.025 80.7812 139.715Z" fill="white"/>
<path d="M64.8555 139.715C64.8555 138.405 65.9175 137.343 67.2275 137.343C68.5375 137.343 69.5995 138.405 69.5995 139.715C69.5995 141.025 68.5375 142.087 67.2275 142.087C65.9175 142.087 64.8555 141.025 64.8555 139.715Z" fill="white"/>
<defs>
<linearGradient id="paint0_linear_1653_675" x1="194.52" y1="137.699" x2="254.505" y2="158.017" gradientUnits="userSpaceOnUse">
<stop stop-color="#0E86FD"/>
<stop offset="1" stop-color="#8D34FB"/>
</linearGradient>
<linearGradient id="paint1_linear_1653_675" x1="100.224" y1="174.515" x2="41.2237" y2="131.083" gradientUnits="userSpaceOnUse">
<stop stop-color="#0C87FD"/>
<stop offset="1" stop-color="#9132FB"/>
</linearGradient>
</defs>
</svg>
