<svg width="295" height="295" viewBox="0 0 295 295" fill="none" xmlns="http://www.w3.org/2000/svg">
<path d="M100.166 216.147L117.776 225.677C122.382 228.169 127.933 228.169 132.54 225.677L153.612 214.273L174.016 201.709C178.476 198.963 181.251 194.151 181.398 188.912L182.067 164.945L181.398 140.978C181.251 135.739 178.476 130.927 174.016 128.181L153.612 115.618L132.54 104.214C127.933 101.722 122.382 101.722 117.776 104.214L96.7026 115.618L76.2994 128.181C71.8391 130.927 69.0636 135.739 68.9175 140.978L68.248 164.945L68.9175 188.912C69.0636 194.151 71.8391 198.963 76.2994 201.709L81.4484 204.88L77.1583 218.74C76.6344 220.433 78.1786 222.039 79.8887 221.581L100.166 216.147Z" fill="white"/>
<path d="M185.85 81.173L163.574 69.1286C157.747 65.9785 150.725 65.9785 144.898 69.1286L118.241 83.5419L92.4299 99.4213C86.7882 102.892 83.2772 108.974 83.0917 115.595L82.2449 145.888L83.0917 176.18C83.2772 182.801 86.7882 188.883 92.4299 192.354L118.241 208.233L144.898 222.646C150.725 225.797 157.747 225.797 163.574 222.646L190.231 208.233L216.042 192.354C221.684 188.883 225.195 182.801 225.38 176.18L226.227 145.888L225.38 115.595C225.195 108.974 221.684 102.892 216.042 99.4213L209.528 95.4139L214.955 77.8957C215.618 75.7568 213.664 73.7262 211.501 74.3052L185.85 81.173Z" fill="url(#paint0_linear_1653_669)"/>
<path d="M108.896 113.941C119.103 102.849 131.17 103.977 145.185 105.287C147.69 105.521 150.257 105.761 152.887 105.938C155.276 105.777 157.69 105.564 160.109 105.351C175.234 104.017 190.515 102.669 200.888 113.941C207.971 122.321 207.266 138.127 206.501 155.254L206.48 155.73C206.046 167.86 197.082 175.614 185.429 178.202C175.319 180.154 165.073 180.06 154.895 179.759C144.712 180.059 134.466 180.154 124.357 178.202C123.897 178.099 123.438 177.987 122.983 177.867C119.783 185.725 124.537 196.293 124.722 196.705L124.726 196.713C91.6041 179.03 101.872 122.266 108.896 113.941Z" fill="white"/>
<path d="M160.734 132.933C160.734 127.04 165.512 122.263 171.405 122.263H172.107C178 122.263 182.777 127.04 182.777 132.933V141.508C182.777 147.401 178 152.178 172.107 152.178H171.405C165.512 152.178 160.734 147.401 160.734 141.508V132.933Z" fill="#01013A"/>
<path d="M123.732 132.933C123.732 127.04 128.51 122.263 134.403 122.263H135.105C140.998 122.263 145.775 127.04 145.775 132.933V141.508C145.775 147.401 140.998 152.178 135.105 152.178H134.403C128.51 152.178 123.732 147.401 123.732 141.508V132.933Z" fill="#01013A"/>
<path d="M170.968 128.561C170.968 125.518 173.435 123.05 176.478 123.05C179.522 123.05 181.989 125.518 181.989 128.561C181.989 131.605 179.522 134.072 176.478 134.072C173.435 134.072 170.968 131.605 170.968 128.561Z" fill="white"/>
<path d="M133.969 128.561C133.969 125.518 136.436 123.05 139.48 123.05C142.523 123.05 144.99 125.518 144.99 128.561C144.99 131.605 142.523 134.072 139.48 134.072C136.436 134.072 133.969 131.605 133.969 128.561Z" fill="white"/>
<defs>
<linearGradient id="paint0_linear_1653_669" x1="216.139" y1="209.408" x2="79.0679" y2="108.507" gradientUnits="userSpaceOnUse">
<stop stop-color="#0C87FD"/>
<stop offset="1" stop-color="#9132FB"/>
</linearGradient>
</defs>
</svg>
